<svg width="69" height="19" viewBox="0 0 69 19" fill="none" xmlns="http://www.w3.org/2000/svg">
<path d="M34.5 0L64.3779 6.77948H4.62212L34.5 0Z" fill="#C5C0C0" fill-opacity="0.26"/>
<rect x="4.21832" y="7.23145" width="59.6594" height="9.64192" fill="#C5C0C0" fill-opacity="0.26"/>
<path d="M8.12726 14.9816C7.7757 14.9816 7.45669 14.8937 7.17023 14.718C6.88377 14.5487 6.63963 14.3143 6.43781 14.0148C6.24249 13.7154 6.0895 13.3638 5.97882 12.9601C5.87465 12.5565 5.82257 12.1203 5.82257 11.6516C5.82257 10.981 5.9007 10.382 6.05695 9.85468C6.2132 9.32733 6.41827 8.88137 6.67218 8.51678C6.9326 8.1522 7.22557 7.87225 7.55109 7.67694C7.88312 7.48163 8.22166 7.38397 8.56671 7.38397C8.89223 7.38397 9.16567 7.44257 9.38702 7.55975C9.60838 7.67694 9.78416 7.82668 9.91437 8.00897C10.0511 8.19126 10.1422 8.39309 10.1878 8.61444C10.2399 8.82928 10.2562 9.03436 10.2366 9.22968C10.2041 9.60728 10.0739 9.91327 9.84601 10.1476C9.62465 10.382 9.36749 10.4992 9.07452 10.4992C8.97687 10.4927 8.87596 10.4764 8.77179 10.4504C8.68064 10.4243 8.58624 10.3853 8.48859 10.3332C8.39093 10.2811 8.29978 10.2062 8.21515 10.1086C8.48859 10.1281 8.70017 10.0728 8.84991 9.94257C8.99965 9.81236 9.11033 9.66587 9.18195 9.50311C9.26007 9.31431 9.30564 9.09296 9.31866 8.83905C9.31866 8.69582 9.29588 8.57212 9.25031 8.46796C9.20473 8.35728 9.14288 8.26939 9.06476 8.20428C8.99314 8.13267 8.91502 8.08059 8.83038 8.04803C8.74575 8.01548 8.66437 7.99921 8.58624 7.99921C8.41046 7.99921 8.2184 8.06757 8.01007 8.20428C7.80825 8.341 7.61619 8.54934 7.4339 8.82928C7.25161 9.10272 7.09861 9.45428 6.97491 9.88397C6.85773 10.3071 6.79913 10.8117 6.79913 11.3976C6.79913 11.9771 6.85122 12.4523 6.95538 12.8234C7.05955 13.188 7.1865 13.4745 7.33624 13.6828C7.48598 13.8846 7.64223 14.0246 7.80499 14.1027C7.97426 14.1743 8.11749 14.2101 8.23468 14.2101C8.46254 14.1906 8.67088 14.1125 8.85968 13.9758C9.02244 13.8586 9.17544 13.673 9.31866 13.4191C9.4684 13.1587 9.56932 12.7876 9.6214 12.3058C9.70603 12.3124 9.77439 12.3319 9.82648 12.3644C9.88507 12.397 9.9339 12.4295 9.97296 12.4621C10.012 12.5012 10.0478 12.5467 10.0804 12.5988C10.0869 12.6053 10.0869 12.6704 10.0804 12.7941C10.0739 12.9178 10.0511 13.0676 10.012 13.2433C9.97296 13.4191 9.91111 13.6079 9.82648 13.8098C9.74835 14.0116 9.63442 14.2004 9.48468 14.3762C9.34145 14.5519 9.15916 14.6952 8.93781 14.8058C8.71645 14.923 8.44627 14.9816 8.12726 14.9816ZM13.5765 13.6242C13.5895 13.6698 13.609 13.7121 13.6351 13.7512C13.6546 13.7837 13.6806 13.8163 13.7132 13.8488C13.7523 13.8749 13.7978 13.8911 13.8499 13.8976C13.8043 13.9888 13.7588 14.0506 13.7132 14.0832C13.6872 14.1027 13.6644 14.1157 13.6448 14.1223C13.5862 14.1418 13.4984 14.1516 13.3812 14.1516C13.264 14.1516 13.15 14.1157 13.0394 14.0441C13.0003 14.0116 12.9645 13.9627 12.9319 13.8976C12.8994 13.8456 12.8701 13.7739 12.8441 13.6828C12.8245 13.5851 12.8082 13.4614 12.7952 13.3117C12.7041 13.507 12.5999 13.6633 12.4827 13.7805C12.372 13.8911 12.2614 13.9725 12.1507 14.0246C12.027 14.0962 11.9 14.1385 11.7698 14.1516C11.6071 14.1646 11.4508 14.1385 11.3011 14.0734C11.1579 14.0018 11.0342 13.8976 10.93 13.7609C10.8323 13.6177 10.7575 13.4452 10.7054 13.2433C10.6533 13.0415 10.637 12.8137 10.6566 12.5598C10.6761 12.2928 10.7282 12.0552 10.8128 11.8469C10.8974 11.6385 10.9984 11.453 11.1155 11.2902C11.2327 11.1275 11.3564 10.9907 11.4866 10.8801C11.6168 10.7629 11.7405 10.6685 11.8577 10.5969C11.9814 10.5187 12.0856 10.4634 12.1702 10.4308C12.2614 10.3918 12.32 10.369 12.346 10.3625C12.4176 10.343 12.4795 10.3364 12.5316 10.343C12.5836 10.3495 12.6292 10.3788 12.6683 10.4308C12.6813 10.4504 12.6976 10.4732 12.7171 10.4992C12.7301 10.5252 12.7464 10.5611 12.7659 10.6066C12.7855 10.6457 12.8017 10.6913 12.8148 10.7433C12.6585 10.815 12.512 10.8963 12.3753 10.9875C12.2386 11.0721 12.1116 11.1763 11.9944 11.3C11.8838 11.4237 11.7861 11.5734 11.7015 11.7492C11.6168 11.925 11.5517 12.1398 11.5062 12.3937C11.4411 12.7127 11.4573 12.9699 11.555 13.1652C11.6592 13.3605 11.7991 13.4419 11.9749 13.4094C12.0791 13.3768 12.18 13.315 12.2776 13.2238C12.3623 13.1457 12.4502 13.0285 12.5413 12.8723C12.639 12.716 12.7301 12.5012 12.8148 12.2277C12.8473 11.8371 12.8734 11.5311 12.8929 11.3098C12.9189 11.0819 12.9417 10.9094 12.9612 10.7922C12.9873 10.6555 13.0068 10.5643 13.0198 10.5187C13.0394 10.4862 13.0784 10.4569 13.137 10.4308C13.1956 10.3983 13.2607 10.3723 13.3323 10.3527C13.404 10.3332 13.4691 10.3234 13.5276 10.3234C13.5862 10.3169 13.6253 10.3169 13.6448 10.3234C13.6579 10.3299 13.6644 10.4113 13.6644 10.5676C13.6644 10.7173 13.6579 10.9094 13.6448 11.1437C13.6383 11.3716 13.6286 11.6223 13.6155 11.8957C13.6025 12.1626 13.5895 12.4165 13.5765 12.6574C13.57 12.8983 13.5635 13.1099 13.5569 13.2922C13.5569 13.468 13.5635 13.5786 13.5765 13.6242ZM15.9593 12.2668C16.1025 12.3189 16.2392 12.3677 16.3694 12.4133C16.4997 12.4588 16.6136 12.5142 16.7112 12.5793C16.8089 12.6444 16.887 12.7225 16.9456 12.8137C17.0042 12.8983 17.0335 13.0057 17.0335 13.1359C17.0335 13.2922 16.9977 13.4387 16.9261 13.5754C16.861 13.7121 16.7633 13.8325 16.6331 13.9367C16.5029 14.0409 16.3434 14.1223 16.1546 14.1808C15.9723 14.246 15.7672 14.2785 15.5394 14.2785C15.2855 14.2785 15.0804 14.2525 14.9241 14.2004C14.7679 14.1548 14.6474 14.0995 14.5628 14.0344C14.4782 13.9693 14.4228 13.9042 14.3968 13.8391C14.3707 13.7739 14.3577 13.7219 14.3577 13.6828C14.3577 13.6047 14.374 13.52 14.4066 13.4289C14.4391 13.3312 14.501 13.2271 14.5921 13.1164C14.6312 13.0708 14.6735 13.0285 14.7191 12.9894C14.8102 12.9113 14.9013 12.8625 14.9925 12.843C14.9795 12.9927 14.9957 13.1164 15.0413 13.2141C15.0934 13.3052 15.1585 13.3768 15.2366 13.4289C15.3213 13.481 15.4124 13.5168 15.5101 13.5363C15.6142 13.5558 15.7119 13.5656 15.803 13.5656C15.8942 13.5656 15.9853 13.5526 16.0765 13.5266C16.1741 13.5005 16.262 13.468 16.3401 13.4289C16.4183 13.3833 16.4801 13.3345 16.5257 13.2824C16.5778 13.2238 16.6038 13.162 16.6038 13.0969C16.6038 13.0252 16.5745 12.9667 16.5159 12.9211C16.4573 12.8755 16.3825 12.8397 16.2913 12.8137C16.2067 12.7811 16.1123 12.7583 16.0081 12.7453C15.9105 12.7258 15.8161 12.7062 15.7249 12.6867C15.6338 12.6672 15.5101 12.6411 15.3538 12.6086C15.2041 12.5695 15.0543 12.5109 14.9046 12.4328C14.7614 12.3547 14.6344 12.2505 14.5237 12.1203C14.4196 11.9901 14.3675 11.8176 14.3675 11.6027C14.3675 11.3553 14.4293 11.1405 14.553 10.9582C14.6832 10.7694 14.8395 10.6131 15.0218 10.4894C15.2106 10.3592 15.4092 10.2616 15.6175 10.1965C15.8258 10.1314 16.0114 10.0988 16.1741 10.0988C16.2588 10.0988 16.3499 10.1118 16.4476 10.1379C16.5452 10.1574 16.6364 10.1965 16.721 10.2551C16.8056 10.3071 16.874 10.3788 16.9261 10.4699C16.9847 10.5611 17.014 10.6782 17.014 10.8215C17.014 10.9647 17.001 11.0819 16.9749 11.173C16.9554 11.2577 16.9228 11.326 16.8773 11.3781C16.8382 11.4237 16.7894 11.453 16.7308 11.466C16.6722 11.479 16.6038 11.4855 16.5257 11.4855C16.4736 11.4855 16.4248 11.479 16.3792 11.466C16.3401 11.453 16.2978 11.44 16.2523 11.4269C16.2067 11.4139 16.1644 11.3911 16.1253 11.3586C16.1904 11.2805 16.2392 11.2056 16.2718 11.134C16.3109 11.0624 16.3304 10.9745 16.3304 10.8703C16.3304 10.7792 16.3043 10.6978 16.2523 10.6262C16.2067 10.5545 16.1286 10.5187 16.0179 10.5187C15.9007 10.5187 15.7868 10.5415 15.6761 10.5871C15.5719 10.6327 15.4775 10.6945 15.3929 10.7726C15.3148 10.8508 15.2497 10.9419 15.1976 11.0461C15.152 11.1437 15.1292 11.2512 15.1292 11.3683C15.1292 11.5441 15.1943 11.7101 15.3245 11.8664C15.4612 12.0226 15.6728 12.1561 15.9593 12.2668ZM20.4222 13.6242C20.4352 13.6698 20.4547 13.7121 20.4808 13.7512C20.5003 13.7837 20.5263 13.8163 20.5589 13.8488C20.598 13.8749 20.6435 13.8911 20.6956 13.8976C20.65 13.9888 20.6045 14.0506 20.5589 14.0832C20.5329 14.1027 20.5101 14.1157 20.4905 14.1223C20.4319 14.1418 20.3441 14.1516 20.2269 14.1516C20.1097 14.1516 19.9957 14.1157 19.8851 14.0441C19.846 14.0116 19.8102 13.9627 19.7776 13.8976C19.7451 13.8456 19.7158 13.7739 19.6898 13.6828C19.6702 13.5851 19.654 13.4614 19.6409 13.3117C19.5498 13.507 19.4456 13.6633 19.3284 13.7805C19.2178 13.8911 19.1071 13.9725 18.9964 14.0246C18.8727 14.0962 18.7457 14.1385 18.6155 14.1516C18.4528 14.1646 18.2965 14.1385 18.1468 14.0734C18.0036 14.0018 17.8799 13.8976 17.7757 13.7609C17.678 13.6177 17.6032 13.4452 17.5511 13.2433C17.499 13.0415 17.4827 12.8137 17.5023 12.5598C17.5218 12.2928 17.5739 12.0552 17.6585 11.8469C17.7431 11.6385 17.8441 11.453 17.9612 11.2902C18.0784 11.1275 18.2021 10.9907 18.3323 10.8801C18.4625 10.7629 18.5862 10.6685 18.7034 10.5969C18.8271 10.5187 18.9313 10.4634 19.0159 10.4308C19.1071 10.3918 19.1657 10.369 19.1917 10.3625C19.2633 10.343 19.3252 10.3364 19.3773 10.343C19.4293 10.3495 19.4749 10.3788 19.514 10.4308C19.527 10.4504 19.5433 10.4732 19.5628 10.4992C19.5758 10.5252 19.5921 10.5611 19.6116 10.6066C19.6312 10.6457 19.6474 10.6913 19.6605 10.7433C19.5042 10.815 19.3577 10.8963 19.221 10.9875C19.0843 11.0721 18.9573 11.1763 18.8401 11.3C18.7295 11.4237 18.6318 11.5734 18.5472 11.7492C18.4625 11.925 18.3974 12.1398 18.3519 12.3937C18.2868 12.7127 18.303 12.9699 18.4007 13.1652C18.5049 13.3605 18.6448 13.4419 18.8206 13.4094C18.9248 13.3768 19.0257 13.315 19.1234 13.2238C19.208 13.1457 19.2959 13.0285 19.387 12.8723C19.4847 12.716 19.5758 12.5012 19.6605 12.2277C19.693 11.8371 19.7191 11.5311 19.7386 11.3098C19.7646 11.0819 19.7874 10.9094 19.8069 10.7922C19.833 10.6555 19.8525 10.5643 19.8655 10.5187C19.8851 10.4862 19.9241 10.4569 19.9827 10.4308C20.0413 10.3983 20.1064 10.3723 20.178 10.3527C20.2497 10.3332 20.3148 10.3234 20.3734 10.3234C20.4319 10.3169 20.471 10.3169 20.4905 10.3234C20.5036 10.3299 20.5101 10.4113 20.5101 10.5676C20.5101 10.7173 20.5036 10.9094 20.4905 11.1437C20.484 11.3716 20.4743 11.6223 20.4612 11.8957C20.4482 12.1626 20.4352 12.4165 20.4222 12.6574C20.4157 12.8983 20.4092 13.1099 20.4026 13.2922C20.4026 13.468 20.4092 13.5786 20.4222 13.6242ZM26.5355 7.92108C26.5355 7.9927 26.529 8.13267 26.5159 8.341C26.5029 8.54934 26.4866 8.79999 26.4671 9.09296C26.4476 9.38593 26.428 9.70819 26.4085 10.0598C26.389 10.4113 26.3727 10.7694 26.3597 11.134C26.3467 11.4986 26.3336 11.8404 26.3206 12.1594C26.3141 12.4719 26.3109 12.7518 26.3109 12.9992C26.3174 13.2466 26.3304 13.4549 26.3499 13.6242C26.3694 13.787 26.3987 13.8976 26.4378 13.9562L25.9984 14.1223C25.9658 14.1353 25.9267 14.1418 25.8812 14.1418C25.8356 14.1418 25.7868 14.1288 25.7347 14.1027C25.6891 14.0767 25.65 14.0311 25.6175 13.966C25.5849 13.9009 25.5687 13.8098 25.5687 13.6926C25.5687 13.647 25.5687 13.5917 25.5687 13.5266C25.5752 13.4549 25.5784 13.3736 25.5784 13.2824C25.5003 13.4126 25.4157 13.5396 25.3245 13.6633C25.2334 13.787 25.1325 13.8944 25.0218 13.9855C24.9176 14.0767 24.8037 14.1483 24.68 14.2004C24.5563 14.259 24.4261 14.2883 24.2894 14.2883C24.1592 14.2883 24.0322 14.259 23.9085 14.2004C23.7848 14.1483 23.6741 14.0669 23.5765 13.9562C23.4788 13.8456 23.3974 13.7023 23.3323 13.5266C23.2737 13.3508 23.2444 13.1392 23.2444 12.8918C23.2444 12.4426 23.2965 12.0519 23.4007 11.7199C23.5049 11.3814 23.6351 11.1014 23.7913 10.8801C23.9541 10.6522 24.1266 10.4829 24.3089 10.3723C24.4977 10.2551 24.6702 10.1965 24.8265 10.1965C25.0674 10.1965 25.2529 10.2616 25.3831 10.3918C25.5133 10.5155 25.6077 10.6457 25.6663 10.7824C25.6728 10.5936 25.6761 10.4178 25.6761 10.2551C25.6826 10.0858 25.6859 9.94257 25.6859 9.82538C25.6859 9.34361 25.6761 8.91392 25.6566 8.53632C25.637 8.15871 25.5882 7.87225 25.5101 7.67694C25.6012 7.62486 25.6826 7.5858 25.7542 7.55975C25.8323 7.53371 25.9007 7.51418 25.9593 7.50116C26.0309 7.48163 26.0928 7.47186 26.1448 7.47186C26.2881 7.47186 26.389 7.51418 26.4476 7.59882C26.5062 7.67694 26.5355 7.78436 26.5355 7.92108ZM25.6077 12.4523C25.6207 12.2831 25.6273 12.1073 25.6273 11.925C25.6338 11.7362 25.6403 11.5474 25.6468 11.3586C25.6012 11.4302 25.5459 11.492 25.4808 11.5441C25.4222 11.5962 25.3571 11.6092 25.2855 11.5832C25.3115 11.3879 25.3082 11.2381 25.2757 11.134C25.2497 11.0298 25.2106 10.9517 25.1585 10.8996C25.0999 10.841 25.0316 10.8085 24.9534 10.8019C24.8362 10.8019 24.7191 10.867 24.6019 10.9973C24.4912 11.1275 24.3903 11.2902 24.2991 11.4855C24.2145 11.6743 24.1461 11.8794 24.0941 12.1008C24.042 12.3156 24.0159 12.5142 24.0159 12.6965C24.0159 13.0611 24.0648 13.315 24.1624 13.4582C24.2666 13.6014 24.3773 13.673 24.4944 13.673C24.5921 13.673 24.693 13.634 24.7972 13.5558C24.9079 13.4777 25.012 13.3768 25.1097 13.2531C25.2138 13.1294 25.3082 12.9992 25.3929 12.8625C25.484 12.7193 25.5556 12.5825 25.6077 12.4523ZM29.7972 12.4426C29.7842 12.6965 29.7386 12.9308 29.6605 13.1457C29.5888 13.3605 29.4879 13.5493 29.3577 13.7121C29.2275 13.8683 29.0713 13.992 28.889 14.0832C28.7132 14.1743 28.5179 14.2232 28.303 14.2297C28.1142 14.2362 27.9352 14.1906 27.7659 14.093C27.6032 13.9953 27.4599 13.8586 27.3362 13.6828C27.2125 13.507 27.1181 13.2987 27.053 13.0578C26.9944 12.8104 26.9782 12.5435 27.0042 12.257C27.0237 11.925 27.0856 11.6418 27.1898 11.4074C27.2939 11.1665 27.4046 10.968 27.5218 10.8117C27.639 10.6555 27.7464 10.5415 27.8441 10.4699C27.9482 10.3918 28.0133 10.3462 28.0394 10.3332C28.0849 10.3137 28.1273 10.3104 28.1663 10.3234C28.2054 10.3299 28.2477 10.3397 28.2933 10.3527C28.3063 10.3592 28.3193 10.3755 28.3323 10.4016C28.3584 10.4471 28.3747 10.5318 28.3812 10.6555C28.4137 10.5838 28.456 10.5252 28.5081 10.4797C28.5602 10.4341 28.6123 10.4016 28.6644 10.382C28.7295 10.356 28.7946 10.3397 28.8597 10.3332C28.9053 10.3267 28.9834 10.3625 29.0941 10.4406C29.2112 10.5187 29.3219 10.6424 29.4261 10.8117C29.5368 10.981 29.6312 11.2023 29.7093 11.4758C29.7874 11.7427 29.8167 12.065 29.7972 12.4426ZM29.1331 12.3254C29.1396 12.1691 29.1331 12.0129 29.1136 11.8566C29.1006 11.6939 29.0745 11.5474 29.0355 11.4172C29.0029 11.2805 28.9606 11.173 28.9085 11.0949C28.8564 11.0103 28.8043 10.968 28.7523 10.968C28.6937 10.981 28.6286 11.0103 28.5569 11.0558C28.4984 11.0949 28.4332 11.1568 28.3616 11.2414C28.29 11.326 28.2217 11.4465 28.1566 11.6027C28.15 11.5832 28.1435 11.5474 28.137 11.4953C28.1305 11.4497 28.124 11.3911 28.1175 11.3195C28.1175 11.2414 28.124 11.1372 28.137 11.007C28.0459 11.1177 27.9743 11.2479 27.9222 11.3976C27.8766 11.5474 27.8408 11.6906 27.8148 11.8273C27.7887 11.9901 27.7692 12.1529 27.7562 12.3156C27.7497 12.4914 27.7562 12.6639 27.7757 12.8332C27.8017 13.0025 27.8408 13.1522 27.8929 13.2824C27.9515 13.4126 28.0198 13.5168 28.098 13.5949C28.1761 13.673 28.2705 13.7088 28.3812 13.7023C28.4918 13.6958 28.5895 13.6502 28.6741 13.5656C28.7588 13.481 28.8336 13.3736 28.8987 13.2433C28.9638 13.1131 29.0159 12.9667 29.055 12.8039C29.0941 12.6411 29.1201 12.4816 29.1331 12.3254ZM31.8675 12.2668C32.0107 12.3189 32.1474 12.3677 32.2776 12.4133C32.4079 12.4588 32.5218 12.5142 32.6194 12.5793C32.7171 12.6444 32.7952 12.7225 32.8538 12.8137C32.9124 12.8983 32.9417 13.0057 32.9417 13.1359C32.9417 13.2922 32.9059 13.4387 32.8343 13.5754C32.7692 13.7121 32.6715 13.8325 32.5413 13.9367C32.4111 14.0409 32.2516 14.1223 32.0628 14.1808C31.8805 14.246 31.6754 14.2785 31.4476 14.2785C31.1937 14.2785 30.9886 14.2525 30.8323 14.2004C30.6761 14.1548 30.5556 14.0995 30.471 14.0344C30.3864 13.9693 30.331 13.9042 30.305 13.8391C30.279 13.7739 30.2659 13.7219 30.2659 13.6828C30.2659 13.6047 30.2822 13.52 30.3148 13.4289C30.3473 13.3312 30.4092 13.2271 30.5003 13.1164C30.5394 13.0708 30.5817 13.0285 30.6273 12.9894C30.7184 12.9113 30.8095 12.8625 30.9007 12.843C30.8877 12.9927 30.904 13.1164 30.9495 13.2141C31.0016 13.3052 31.0667 13.3768 31.1448 13.4289C31.2295 13.481 31.3206 13.5168 31.4183 13.5363C31.5224 13.5558 31.6201 13.5656 31.7112 13.5656C31.8024 13.5656 31.8935 13.5526 31.9847 13.5266C32.0823 13.5005 32.1702 13.468 32.2484 13.4289C32.3265 13.3833 32.3883 13.3345 32.4339 13.2824C32.486 13.2238 32.512 13.162 32.512 13.0969C32.512 13.0252 32.4827 12.9667 32.4241 12.9211C32.3655 12.8755 32.2907 12.8397 32.1995 12.8137C32.1149 12.7811 32.0205 12.7583 31.9163 12.7453C31.8187 12.7258 31.7243 12.7062 31.6331 12.6867C31.542 12.6672 31.4183 12.6411 31.262 12.6086C31.1123 12.5695 30.9625 12.5109 30.8128 12.4328C30.6696 12.3547 30.5426 12.2505 30.4319 12.1203C30.3278 11.9901 30.2757 11.8176 30.2757 11.6027C30.2757 11.3553 30.3375 11.1405 30.4612 10.9582C30.5915 10.7694 30.7477 10.6131 30.93 10.4894C31.1188 10.3592 31.3174 10.2616 31.5257 10.1965C31.734 10.1314 31.9196 10.0988 32.0823 10.0988C32.167 10.0988 32.2581 10.1118 32.3558 10.1379C32.4534 10.1574 32.5446 10.1965 32.6292 10.2551C32.7138 10.3071 32.7822 10.3788 32.8343 10.4699C32.8929 10.5611 32.9222 10.6782 32.9222 10.8215C32.9222 10.9647 32.9092 11.0819 32.8831 11.173C32.8636 11.2577 32.831 11.326 32.7855 11.3781C32.7464 11.4237 32.6976 11.453 32.639 11.466C32.5804 11.479 32.512 11.4855 32.4339 11.4855C32.3818 11.4855 32.333 11.479 32.2874 11.466C32.2484 11.453 32.206 11.44 32.1605 11.4269C32.1149 11.4139 32.0726 11.3911 32.0335 11.3586C32.0986 11.2805 32.1474 11.2056 32.18 11.134C32.2191 11.0624 32.2386 10.9745 32.2386 10.8703C32.2386 10.7792 32.2125 10.6978 32.1605 10.6262C32.1149 10.5545 32.0368 10.5187 31.9261 10.5187C31.8089 10.5187 31.695 10.5415 31.5843 10.5871C31.4801 10.6327 31.3857 10.6945 31.3011 10.7726C31.223 10.8508 31.1579 10.9419 31.1058 11.0461C31.0602 11.1437 31.0374 11.2512 31.0374 11.3683C31.0374 11.5441 31.1025 11.7101 31.2327 11.8664C31.3694 12.0226 31.581 12.1561 31.8675 12.2668ZM35.5491 14.6105C35.5752 14.5259 35.598 14.3827 35.6175 14.1808C35.6435 13.9855 35.6631 13.787 35.6761 13.5851C35.6956 13.3508 35.7119 13.0969 35.7249 12.8234C35.7444 12.6216 35.7607 12.3677 35.7737 12.0617C35.7868 11.7557 35.7965 11.4302 35.803 11.0851C35.8095 10.7401 35.8128 10.3918 35.8128 10.0402C35.8128 9.68215 35.8095 9.35012 35.803 9.04413C35.7965 8.73814 35.7835 8.47447 35.764 8.25311C35.751 8.03176 35.7314 7.88202 35.7054 7.80389C35.8291 7.73228 35.9398 7.6802 36.0374 7.64764C36.1351 7.61509 36.2197 7.59231 36.2913 7.57928C36.3694 7.55975 36.4411 7.55324 36.5062 7.55975C36.5582 7.56626 36.6103 7.57603 36.6624 7.58905C36.708 7.60207 36.7503 7.6216 36.7894 7.64764C36.8284 7.66718 36.8577 7.69647 36.8773 7.73553C36.8642 8.14569 36.848 8.5591 36.8284 8.97577C36.8154 9.38593 36.7991 9.76353 36.7796 10.1086C36.7536 10.5122 36.7275 10.8996 36.7015 11.2707C36.6819 11.6613 36.6624 11.9999 36.6429 12.2863C36.6299 12.5663 36.6168 12.8137 36.6038 13.0285C36.5908 13.2368 36.581 13.4256 36.5745 13.5949C36.568 13.7577 36.5648 13.9204 36.5648 14.0832C36.721 14.0506 36.9066 14.0148 37.1214 13.9758C37.3362 13.9302 37.5804 13.8846 37.8538 13.8391C38.1142 13.8 38.3323 13.7902 38.5081 13.8098C38.6839 13.8228 38.8239 13.8618 38.928 13.9269C39.0322 13.9855 39.1038 14.0604 39.1429 14.1516C39.1819 14.2492 39.1982 14.3566 39.1917 14.4738C39.1787 14.604 39.1689 14.7049 39.1624 14.7766C39.1559 14.8482 39.1526 14.9035 39.1526 14.9426C39.081 14.897 38.9834 14.8644 38.8597 14.8449C38.736 14.8254 38.6123 14.8091 38.4886 14.7961C38.3454 14.7831 38.1956 14.7798 38.0394 14.7863C37.8701 14.7928 37.6845 14.8058 37.4827 14.8254C37.3135 14.8384 37.1149 14.8579 36.887 14.884C36.6592 14.91 36.4215 14.9491 36.1741 15.0012C35.9984 14.8775 35.8519 14.7798 35.7347 14.7082C35.6631 14.6691 35.6012 14.6366 35.5491 14.6105ZM42.0823 13.6242C42.0954 13.6698 42.1149 13.7121 42.1409 13.7512C42.1605 13.7837 42.1865 13.8163 42.2191 13.8488C42.2581 13.8749 42.3037 13.8911 42.3558 13.8976C42.3102 13.9888 42.2646 14.0506 42.2191 14.0832C42.193 14.1027 42.1702 14.1157 42.1507 14.1223C42.0921 14.1418 42.0042 14.1516 41.887 14.1516C41.7698 14.1516 41.6559 14.1157 41.5452 14.0441C41.5062 14.0116 41.4704 13.9627 41.4378 13.8976C41.4053 13.8456 41.376 13.7739 41.3499 13.6828C41.3304 13.5851 41.3141 13.4614 41.3011 13.3117C41.2099 13.507 41.1058 13.6633 40.9886 13.7805C40.8779 13.8911 40.7672 13.9725 40.6566 14.0246C40.5329 14.0962 40.4059 14.1385 40.2757 14.1516C40.1129 14.1646 39.9567 14.1385 39.8069 14.0734C39.6637 14.0018 39.54 13.8976 39.4359 13.7609C39.3382 13.6177 39.2633 13.4452 39.2112 13.2433C39.1592 13.0415 39.1429 12.8137 39.1624 12.5598C39.1819 12.2928 39.234 12.0552 39.3187 11.8469C39.4033 11.6385 39.5042 11.453 39.6214 11.2902C39.7386 11.1275 39.8623 10.9907 39.9925 10.8801C40.1227 10.7629 40.2464 10.6685 40.3636 10.5969C40.4873 10.5187 40.5915 10.4634 40.6761 10.4308C40.7672 10.3918 40.8258 10.369 40.8519 10.3625C40.9235 10.343 40.9853 10.3364 41.0374 10.343C41.0895 10.3495 41.1351 10.3788 41.1741 10.4308C41.1872 10.4504 41.2034 10.4732 41.223 10.4992C41.236 10.5252 41.2523 10.5611 41.2718 10.6066C41.2913 10.6457 41.3076 10.6913 41.3206 10.7433C41.1644 10.815 41.0179 10.8963 40.8812 10.9875C40.7444 11.0721 40.6175 11.1763 40.5003 11.3C40.3896 11.4237 40.292 11.5734 40.2073 11.7492C40.1227 11.925 40.0576 12.1398 40.012 12.3937C39.9469 12.7127 39.9632 12.9699 40.0609 13.1652C40.165 13.3605 40.305 13.4419 40.4808 13.4094C40.5849 13.3768 40.6859 13.315 40.7835 13.2238C40.8681 13.1457 40.956 13.0285 41.0472 12.8723C41.1448 12.716 41.236 12.5012 41.3206 12.2277C41.3532 11.8371 41.3792 11.5311 41.3987 11.3098C41.4248 11.0819 41.4476 10.9094 41.4671 10.7922C41.4931 10.6555 41.5127 10.5643 41.5257 10.5187C41.5452 10.4862 41.5843 10.4569 41.6429 10.4308C41.7015 10.3983 41.7666 10.3723 41.8382 10.3527C41.9098 10.3332 41.9749 10.3234 42.0335 10.3234C42.0921 10.3169 42.1312 10.3169 42.1507 10.3234C42.1637 10.3299 42.1702 10.4113 42.1702 10.5676C42.1702 10.7173 42.1637 10.9094 42.1507 11.1437C42.1442 11.3716 42.1344 11.6223 42.1214 11.8957C42.1084 12.1626 42.0954 12.4165 42.0823 12.6574C42.0758 12.8983 42.0693 13.1099 42.0628 13.2922C42.0628 13.468 42.0693 13.5786 42.0823 13.6242ZM43.9378 13.8586C43.9313 13.8976 43.8955 13.94 43.8304 13.9855C43.7718 14.0246 43.7002 14.0604 43.6155 14.093C43.5374 14.1255 43.4625 14.145 43.3909 14.1516C43.3193 14.1646 43.2705 14.1581 43.2444 14.132C43.2184 14.106 43.1761 14.0571 43.1175 13.9855C43.0589 13.9139 43.0231 13.7967 43.0101 13.634C42.997 13.4647 42.9905 13.2531 42.9905 12.9992C42.9905 12.7388 42.9873 12.4523 42.9808 12.1398V11.7492C42.9808 11.632 42.9775 11.4953 42.971 11.3391C42.971 11.1828 42.9678 11.02 42.9612 10.8508C43.0198 10.8182 43.0784 10.7889 43.137 10.7629C43.2021 10.7303 43.2607 10.7043 43.3128 10.6848C43.3714 10.6587 43.4267 10.6392 43.4788 10.6262C43.6155 10.5871 43.7197 10.5643 43.7913 10.5578C43.8629 10.5513 43.9053 10.5741 43.9183 10.6262C43.9248 10.6652 43.9215 10.7596 43.9085 10.9094C43.8955 11.0396 43.8792 11.2381 43.8597 11.5051C43.8401 11.7655 43.8076 12.1301 43.762 12.5988C43.8467 12.3905 43.915 12.2114 43.9671 12.0617C44.0257 11.912 44.0745 11.7915 44.1136 11.7004C44.1526 11.5897 44.1885 11.5018 44.221 11.4367C44.2536 11.3521 44.2959 11.2577 44.348 11.1535C44.4 11.0493 44.4521 10.9517 44.5042 10.8605C44.5628 10.7694 44.6149 10.688 44.6605 10.6164C44.7125 10.5448 44.7516 10.5025 44.7776 10.4894C44.7972 10.4764 44.8558 10.4764 44.9534 10.4894C45.0511 10.5025 45.1553 10.535 45.2659 10.5871C45.3766 10.6327 45.484 10.701 45.5882 10.7922C45.6924 10.8768 45.7607 10.981 45.7933 11.1047C45.8323 11.2479 45.8454 11.4367 45.8323 11.6711C45.8258 11.9055 45.8095 12.1463 45.7835 12.3937C45.764 12.6411 45.7477 12.8755 45.7347 13.0969C45.7217 13.3182 45.7347 13.4875 45.7737 13.6047C45.7868 13.6698 45.8063 13.7284 45.8323 13.7805C45.8454 13.8325 45.8616 13.8814 45.8812 13.9269C45.9072 13.966 45.9332 13.9953 45.9593 14.0148C45.803 14.0864 45.6761 14.1385 45.5784 14.1711C45.4808 14.2036 45.4059 14.2264 45.3538 14.2394C45.2887 14.259 45.2431 14.2655 45.2171 14.259C45.1585 14.2394 45.1064 14.1906 45.0609 14.1125C45.0218 14.0344 44.986 13.9107 44.9534 13.7414C44.9404 13.6893 44.9339 13.6047 44.9339 13.4875C44.9404 13.3638 44.9502 13.2271 44.9632 13.0773C44.9762 12.9211 44.9892 12.7616 45.0023 12.5988C45.0218 12.4295 45.0348 12.2733 45.0413 12.1301C45.0543 11.9803 45.0641 11.8534 45.0706 11.7492C45.0771 11.6385 45.0771 11.5637 45.0706 11.5246C45.0381 11.4074 44.9925 11.326 44.9339 11.2805C44.8753 11.2284 44.8297 11.2219 44.7972 11.2609C44.7125 11.3586 44.6214 11.5181 44.5237 11.7394C44.4326 11.9543 44.3447 12.1919 44.2601 12.4523C44.1754 12.7062 44.1038 12.9601 44.0452 13.2141C43.9866 13.468 43.9508 13.6828 43.9378 13.8586ZM49.2015 12.8918C49.2015 12.9634 49.1754 13.0741 49.1234 13.2238C49.0778 13.367 48.9997 13.5135 48.889 13.6633C48.7783 13.8065 48.6351 13.9335 48.4593 14.0441C48.29 14.1548 48.0817 14.2101 47.8343 14.2101C47.4827 14.2101 47.1865 14.1157 46.9456 13.9269C46.7112 13.7316 46.5452 13.4549 46.4476 13.0969C46.3694 12.7974 46.3467 12.4784 46.3792 12.1398C46.4183 11.7948 46.5127 11.4758 46.6624 11.1828C46.8122 10.8898 47.0205 10.6424 47.2874 10.4406C47.5543 10.2323 47.8799 10.1183 48.264 10.0988C48.4593 10.0923 48.622 10.1281 48.7523 10.2062C48.8825 10.2844 48.9834 10.3853 49.055 10.509C49.1266 10.6327 49.1689 10.7694 49.1819 10.9191C49.195 11.0624 49.1787 11.1991 49.1331 11.3293C49.0941 11.4595 49.029 11.5702 48.9378 11.6613C48.8532 11.746 48.7425 11.7915 48.6058 11.798C48.4691 11.8111 48.3551 11.7948 48.264 11.7492C48.1793 11.6971 48.111 11.6353 48.0589 11.5637C48.0133 11.492 47.9808 11.4172 47.9612 11.3391C47.9482 11.2609 47.9482 11.1926 47.9612 11.134C47.9808 11.0493 48.0133 10.9712 48.0589 10.8996C48.098 10.8345 48.1533 10.7694 48.2249 10.7043C48.303 10.6392 48.404 10.5871 48.5276 10.548C48.5081 10.535 48.4886 10.5285 48.4691 10.5285C48.4495 10.5285 48.43 10.5252 48.4105 10.5187C48.3844 10.5187 48.3649 10.5155 48.3519 10.509C48.2477 10.509 48.1273 10.5448 47.9905 10.6164C47.8603 10.688 47.7334 10.8019 47.6097 10.9582C47.4925 11.1144 47.3916 11.3163 47.3069 11.5637C47.2288 11.8045 47.1898 12.0975 47.1898 12.4426C47.1898 12.5923 47.206 12.742 47.2386 12.8918C47.2711 13.035 47.32 13.1652 47.3851 13.2824C47.4567 13.3931 47.5413 13.4842 47.639 13.5558C47.7431 13.621 47.8636 13.6535 48.0003 13.6535C48.1566 13.6535 48.2933 13.621 48.4105 13.5558C48.5342 13.4842 48.6383 13.4029 48.723 13.3117C48.8076 13.2206 48.8727 13.1294 48.9183 13.0383C48.9704 12.9471 49.0062 12.8788 49.0257 12.8332C49.0452 12.7941 49.0778 12.7746 49.1234 12.7746C49.1754 12.7746 49.2015 12.8137 49.2015 12.8918ZM50.5882 12.5891C50.6663 12.3547 50.7314 12.1561 50.7835 11.9933C50.8421 11.8306 50.8909 11.7004 50.93 11.6027C50.9756 11.4855 51.0146 11.3911 51.0472 11.3195C51.0862 11.2154 51.1286 11.1112 51.1741 11.007C51.2262 10.9029 51.2783 10.8085 51.3304 10.7238C51.3825 10.6327 51.4313 10.5578 51.4769 10.4992C51.5224 10.4406 51.5615 10.4016 51.5941 10.382C51.6201 10.369 51.6787 10.369 51.7698 10.382C51.8675 10.395 51.9717 10.4276 52.0823 10.4797C52.1995 10.5252 52.3069 10.5904 52.4046 10.675C52.5088 10.7596 52.5804 10.8638 52.6194 10.9875C52.6585 11.1372 52.6715 11.3325 52.6585 11.5734C52.6455 11.8143 52.626 12.0617 52.5999 12.3156C52.5804 12.5695 52.5641 12.8104 52.5511 13.0383C52.5446 13.2661 52.5609 13.4387 52.5999 13.5558C52.626 13.621 52.652 13.6861 52.678 13.7512C52.7041 13.8032 52.7334 13.8586 52.7659 13.9172C52.805 13.9693 52.8473 14.0148 52.8929 14.0539C52.7041 14.1255 52.5511 14.1776 52.4339 14.2101C52.3232 14.2492 52.2386 14.2752 52.18 14.2883C52.1084 14.3078 52.0595 14.3111 52.0335 14.298C51.9814 14.2785 51.9326 14.2297 51.887 14.1516C51.8415 14.0734 51.8024 13.9497 51.7698 13.7805C51.7568 13.7284 51.7536 13.6372 51.7601 13.507C51.7666 13.3768 51.7763 13.2303 51.7894 13.0676C51.8024 12.9048 51.8154 12.7355 51.8284 12.5598C51.8415 12.3775 51.8545 12.2082 51.8675 12.0519C51.8805 11.8957 51.887 11.759 51.887 11.6418C51.8935 11.5246 51.8935 11.4465 51.887 11.4074C51.8545 11.2967 51.8089 11.2186 51.7503 11.173C51.6917 11.121 51.6461 11.1144 51.6136 11.1535C51.5355 11.2512 51.4476 11.4204 51.3499 11.6613C51.2588 11.8957 51.1709 12.1529 51.0862 12.4328C51.0016 12.7062 50.9267 12.9797 50.8616 13.2531C50.803 13.5266 50.7672 13.7512 50.7542 13.9269C50.7542 13.966 50.7217 14.0083 50.6566 14.0539C50.598 14.093 50.5296 14.1288 50.4515 14.1613C50.3799 14.1939 50.3082 14.2134 50.2366 14.2199C50.165 14.2329 50.1162 14.2232 50.0901 14.1906C50.0706 14.1711 50.0283 14.1255 49.9632 14.0539C49.9046 13.9823 49.872 13.8618 49.8655 13.6926C49.8525 13.5298 49.8525 13.3085 49.8655 13.0285C49.8786 12.742 49.8818 12.4426 49.8753 12.1301V11.4074C49.8753 11.1144 49.872 10.7108 49.8655 10.1965C49.8655 9.67564 49.8623 8.98879 49.8558 8.13593C49.9274 8.09686 49.9925 8.06431 50.0511 8.03827C50.1097 8.00572 50.165 7.97968 50.2171 7.96014C50.2757 7.9341 50.331 7.91457 50.3831 7.90155C50.6631 7.82994 50.8095 7.82994 50.8226 7.90155C50.8291 7.96665 50.8226 8.17499 50.803 8.52655C50.7965 8.67629 50.7868 8.86509 50.7737 9.09296C50.7607 9.32082 50.7444 9.59751 50.7249 9.92303C50.7119 10.2486 50.6924 10.6327 50.6663 11.0754C50.6468 11.5116 50.6207 12.0161 50.5882 12.5891ZM54.6702 14.2297C54.2145 14.2297 53.8629 14.0767 53.6155 13.7707C53.3681 13.4647 53.2444 13.0643 53.2444 12.5695C53.2444 12.2245 53.2933 11.9022 53.3909 11.6027C53.4951 11.2967 53.6318 11.0331 53.8011 10.8117C53.9704 10.5904 54.1657 10.4178 54.387 10.2941C54.6149 10.1639 54.8525 10.0988 55.0999 10.0988C55.3408 10.0988 55.5459 10.1867 55.7151 10.3625C55.8844 10.5318 55.9691 10.7759 55.9691 11.0949C55.9691 11.3032 55.9235 11.5116 55.8323 11.7199C55.7412 11.9217 55.6207 12.104 55.471 12.2668C55.3278 12.423 55.1683 12.55 54.9925 12.6476C54.8167 12.7453 54.6474 12.7941 54.4847 12.7941C54.3805 12.7941 54.2926 12.7811 54.221 12.7551C54.1494 12.729 54.0843 12.69 54.0257 12.6379C54.0452 13.009 54.1266 13.2694 54.2698 13.4191C54.4131 13.5624 54.5986 13.634 54.8265 13.634C54.9827 13.634 55.1194 13.6014 55.2366 13.5363C55.3603 13.4712 55.4645 13.3963 55.5491 13.3117C55.6338 13.2271 55.7021 13.1424 55.7542 13.0578C55.8063 12.9667 55.8421 12.8983 55.8616 12.8527C55.8812 12.8137 55.9137 12.7941 55.9593 12.7941C56.0114 12.7941 56.0374 12.8332 56.0374 12.9113C56.0374 12.9829 56.0114 13.0936 55.9593 13.2433C55.9137 13.3866 55.8356 13.5331 55.7249 13.6828C55.6142 13.826 55.471 13.953 55.2952 14.0637C55.126 14.1743 54.9176 14.2297 54.6702 14.2297ZM55.1194 10.5187C55.0804 10.5187 55.0055 10.5611 54.8948 10.6457C54.7907 10.7238 54.6767 10.841 54.553 10.9973C54.4359 11.1535 54.3252 11.3423 54.221 11.5637C54.1234 11.7785 54.0615 12.0226 54.0355 12.2961C54.4261 12.2049 54.7353 12.0617 54.9632 11.8664C55.1911 11.6711 55.305 11.3846 55.305 11.007C55.305 10.8182 55.2822 10.6913 55.2366 10.6262C55.1911 10.5545 55.152 10.5187 55.1194 10.5187ZM58.1468 12.2668C58.29 12.3189 58.4267 12.3677 58.5569 12.4133C58.6872 12.4588 58.8011 12.5142 58.8987 12.5793C58.9964 12.6444 59.0745 12.7225 59.1331 12.8137C59.1917 12.8983 59.221 13.0057 59.221 13.1359C59.221 13.2922 59.1852 13.4387 59.1136 13.5754C59.0485 13.7121 58.9508 13.8325 58.8206 13.9367C58.6904 14.0409 58.5309 14.1223 58.3421 14.1808C58.1598 14.246 57.9547 14.2785 57.7269 14.2785C57.473 14.2785 57.2679 14.2525 57.1116 14.2004C56.9554 14.1548 56.8349 14.0995 56.7503 14.0344C56.6657 13.9693 56.6103 13.9042 56.5843 13.8391C56.5582 13.7739 56.5452 13.7219 56.5452 13.6828C56.5452 13.6047 56.5615 13.52 56.5941 13.4289C56.6266 13.3312 56.6885 13.2271 56.7796 13.1164C56.8187 13.0708 56.861 13.0285 56.9066 12.9894C56.9977 12.9113 57.0888 12.8625 57.18 12.843C57.167 12.9927 57.1832 13.1164 57.2288 13.2141C57.2809 13.3052 57.346 13.3768 57.4241 13.4289C57.5088 13.481 57.5999 13.5168 57.6976 13.5363C57.8017 13.5558 57.8994 13.5656 57.9905 13.5656C58.0817 13.5656 58.1728 13.5526 58.264 13.5266C58.3616 13.5005 58.4495 13.468 58.5276 13.4289C58.6058 13.3833 58.6676 13.3345 58.7132 13.2824C58.7653 13.2238 58.7913 13.162 58.7913 13.0969C58.7913 13.0252 58.762 12.9667 58.7034 12.9211C58.6448 12.8755 58.57 12.8397 58.4788 12.8137C58.3942 12.7811 58.2998 12.7583 58.1956 12.7453C58.098 12.7258 58.0036 12.7062 57.9124 12.6867C57.8213 12.6672 57.6976 12.6411 57.5413 12.6086C57.3916 12.5695 57.2418 12.5109 57.0921 12.4328C56.9489 12.3547 56.8219 12.2505 56.7112 12.1203C56.6071 11.9901 56.555 11.8176 56.555 11.6027C56.555 11.3553 56.6168 11.1405 56.7405 10.9582C56.8707 10.7694 57.027 10.6131 57.2093 10.4894C57.3981 10.3592 57.5967 10.2616 57.805 10.1965C58.0133 10.1314 58.1989 10.0988 58.3616 10.0988C58.4463 10.0988 58.5374 10.1118 58.6351 10.1379C58.7327 10.1574 58.8239 10.1965 58.9085 10.2551C58.9931 10.3071 59.0615 10.3788 59.1136 10.4699C59.1722 10.5611 59.2015 10.6782 59.2015 10.8215C59.2015 10.9647 59.1885 11.0819 59.1624 11.173C59.1429 11.2577 59.1103 11.326 59.0648 11.3781C59.0257 11.4237 58.9769 11.453 58.9183 11.466C58.8597 11.479 58.7913 11.4855 58.7132 11.4855C58.6611 11.4855 58.6123 11.479 58.5667 11.466C58.5276 11.453 58.4853 11.44 58.4398 11.4269C58.3942 11.4139 58.3519 11.3911 58.3128 11.3586C58.3779 11.2805 58.4267 11.2056 58.4593 11.134C58.4984 11.0624 58.5179 10.9745 58.5179 10.8703C58.5179 10.7792 58.4918 10.6978 58.4398 10.6262C58.3942 10.5545 58.3161 10.5187 58.2054 10.5187C58.0882 10.5187 57.9743 10.5415 57.8636 10.5871C57.7594 10.6327 57.665 10.6945 57.5804 10.7726C57.5023 10.8508 57.4372 10.9419 57.3851 11.0461C57.3395 11.1437 57.3167 11.2512 57.3167 11.3683C57.3167 11.5441 57.3818 11.7101 57.512 11.8664C57.6487 12.0226 57.8603 12.1561 58.1468 12.2668Z" fill="white"/>
</svg>
